<svg id="ico-email" xmlns="http://www.w3.org/2000/svg" width="24" height="18" viewBox="0 0 24 18">
  <path id="Контур_6" data-name="Контур 6" d="M3030,532.751l10.114,6.278,10.1-6.278" transform="translate(-3028.216 -530.029)" fill="none" stroke="#d4dbdb" stroke-width="3"/>
  <path id="Контур_5" data-name="Контур 5" d="M23.6,4H4.4A2.335,2.335,0,0,0,2,6.25v13.5A2.335,2.335,0,0,0,4.4,22H23.6A2.335,2.335,0,0,0,26,19.75V6.25A2.335,2.335,0,0,0,23.6,4Zm-.48,4.781-7.848,4.6a2.512,2.512,0,0,1-2.544,0L4.88,8.781a.95.95,0,0,1-.48-.81,1.022,1.022,0,0,1,1.56-.81L14,11.875l8.04-4.714a1.022,1.022,0,0,1,1.56.81A.95.95,0,0,1,23.12,8.781Z" transform="translate(-2 -4)" fill="#dfe6e6"/>
</svg>
