<svg xmlns="http://www.w3.org/2000/svg" width="24" height="24" viewBox="0 0 24 24">
  <path id="ico-message" d="M22.39,5.509A11.946,11.946,0,0,0,2.948,18.664a1.269,1.269,0,0,1,.107.765L2,24.489A1.188,1.188,0,0,0,3.2,25.924h.239L8.549,24.9A1.5,1.5,0,0,1,9.313,25,11.955,11.955,0,0,0,22.449,5.532ZM9.17,15.16a1.2,1.2,0,1,1,1.194-1.2A1.2,1.2,0,0,1,9.17,15.16Zm4.777,0a1.2,1.2,0,1,1,1.194-1.2A1.2,1.2,0,0,1,13.947,15.16Zm4.777,0a1.2,1.2,0,1,1,1.194-1.2A1.2,1.2,0,0,1,18.724,15.16Z" transform="translate(-1.975 -1.978)" fill="#dfe6e6"/>
</svg>
