<?xml version="1.0" standalone="no"?>
<!DOCTYPE svg PUBLIC "-//W3C//DTD SVG 20010904//EN"
 "http://www.w3.org/TR/2001/REC-SVG-20010904/DTD/svg10.dtd">
<svg version="1.0" xmlns="http://www.w3.org/2000/svg"
 width="99.000000pt" height="99.000000pt" viewBox="0 0 99.000000 99.000000"
 preserveAspectRatio="xMidYMid meet">
<metadata>
Created by potrace 1.14, written by Peter Selinger 2001-2017
</metadata>
<g transform="translate(0.000000,99.000000) scale(0.100000,-0.100000)"
fill="#000000" stroke="none">
<path d="M173 974 c-65 -23 -128 -86 -152 -150 -19 -50 -21 -77 -21 -328 0
-309 4 -334 71 -410 27 -31 57 -51 95 -65 50 -19 77 -21 329 -21 252 0 279 2
329 21 38 14 68 34 95 65 67 76 71 101 71 410 0 251 -2 278 -21 328 -24 66
-88 127 -156 150 -66 22 -577 22 -640 0z m157 -374 c0 -28 -2 -30 -40 -30
l-40 0 0 -110 0 -110 -30 0 -30 0 0 110 0 110 -40 0 c-38 0 -40 2 -40 30 l0
30 110 0 110 0 0 -30z m145 20 c4 -7 12 -7 25 0 34 18 75 11 101 -16 22 -23
24 -35 27 -140 l4 -114 -31 0 -31 0 0 109 c0 94 -2 110 -17 115 -32 13 -43
-21 -43 -126 0 -98 0 -98 -25 -98 l-25 0 0 104 c0 80 -3 106 -15 116 -12 10
-18 10 -30 0 -12 -10 -15 -36 -15 -116 l0 -104 -25 0 -25 0 0 117 c0 106 2
119 22 140 23 24 91 33 103 13z m386 -28 c40 -45 40 -99 0 -144 -24 -27 -38
-33 -82 -38 -50 -5 -54 -7 -57 -32 -3 -22 -9 -28 -28 -28 l-24 0 0 141 0 141
81 -4 c77 -3 82 -5 110 -36z"/>
<path d="M722 518 c3 -47 6 -53 27 -56 61 -9 101 32 77 79 -9 19 -20 25 -59
27 l-48 3 3 -53z"/>
</g>
</svg>
