<svg xmlns="http://www.w3.org/2000/svg" xmlns:xlink="http://www.w3.org/1999/xlink" width="172" height="44" viewBox="0 0 172 44">
  <defs>
    <linearGradient id="linear-gradient" y1="0.5" x2="1" y2="0.5" gradientUnits="objectBoundingBox">
      <stop offset="0" stop-color="#24574f"/>
      <stop offset="1" stop-color="#3f8d7f"/>
    </linearGradient>
  </defs>
  <g id="Logo" transform="translate(-137.528 -58.803)">
    <path id="Контур_133" data-name="Контур 133" d="M163.363,89.453c.865-3.885,4.588-7.433,5.376-10.083,1.107-3.719-.408-5.833-2.909-7.086,3.63.784,4.941,3.223,4.523,6.893a6.51,6.51,0,0,1,1.884,1.656,6.011,6.011,0,0,0-1.686-5.745,13.809,13.809,0,0,1,2.733-.171c-1.03-1.81-2.837-3.008-5.663-3.378a4.866,4.866,0,0,1,1.851-1.285,12.428,12.428,0,0,0-5.9-.4,6.014,6.014,0,0,1,1.989-1.656,11.91,11.91,0,0,0-7.619,1.656,25.651,25.651,0,0,1,6.269-5.745c-5.415,1.5-10.8,6.17-16.862,8.648l1.989,1.153a17.318,17.318,0,0,1-7.145,3.273c2.319,3.731,5.635,4.708,9.3,4.294-3.03-1.38-3.008-3.78,5.1-3.378,3.432-2.053,2.451-4.062-1.168-5.1,5.162-1.578,8.3-1.137,8.467,2.285-.716-2.307-3.063-2.765-5.63-2.014l.65.585c2.837-.839,4.968.966,3.371,4.255-3.724,7.676-12.24,10.182-10.169,23.482a21.755,21.755,0,0,0,5.806,1.22c-2.694-4.813-2.1-9.9,1.68-15.259-2.661,7.643-.11,12.246,3.872,14.961a21.9,21.9,0,0,0,8.742-3.686C165.522,100.347,162.295,94.266,163.363,89.453ZM144.485,78.046l.991-.326a2.706,2.706,0,0,0,.27,1.4A7.926,7.926,0,0,1,144.485,78.046Zm6.313-4.708,2.4-.938-1.559,1.556Zm5.255,3.157a1.429,1.429,0,0,0,.8-2.141c1.438.833,1.267,1.92-.364,2.914a15.145,15.145,0,0,0-3.354-.011A8.078,8.078,0,0,1,156.053,76.5Zm25.45,4.337a21.974,21.974,0,0,1-5.635,14.729c-8.23,3.868-13.92-4.277-7.6-12.036-1.521,7.952,6.236,8.769,10.857,2.7a18.424,18.424,0,0,0,.292-10.077,19.737,19.737,0,0,1-1.151,9.431,9.323,9.323,0,0,1-3.327,2.445,17.836,17.836,0,1,0-30.727.21,8.217,8.217,0,0,0-1.2,2.445,14.689,14.689,0,0,1-3.663-6.319,15.385,15.385,0,0,0,4.308,9.128,14.381,14.381,0,0,1,4.187-6.567l.022,3.306,3.509-.96a16.987,16.987,0,0,0-2.826,10.657A22.016,22.016,0,1,1,181.5,80.833Zm-20.889-5.889c1.267.613.81,2.6-.644,4.559l-2.143.684-.044-.6C159.683,78.09,160.9,76.633,160.614,74.945Zm-3.547,6.269,1.779-.425c-.849.839-1.752,1.717-2.666,2.649l-2.429.292-.072-1.28c1.184-.795,2.319-1.54,3.316-2.268Zm-4.286,1.843-.011,1.794,2.308-.26a37.781,37.781,0,0,0-2.611,3.1l-3.581.889-.055-2.544A43.584,43.584,0,0,1,152.781,83.057Zm5.112-19.243A13.05,13.05,0,0,0,155.48,67.4a34.827,34.827,0,0,1-3.5,1.959A20.1,20.1,0,0,1,157.893,63.814Z" transform="translate(0)" fill-rule="evenodd" fill="url(#linear-gradient)"/>
    <g id="Сгруппировать_30" data-name="Сгруппировать 30" transform="translate(193.439 62.4)">
      <path id="Контур_134" data-name="Контур 134" d="M260.856,91.667q0,4.833-2.649,7.469t-7.691,2.636a15.287,15.287,0,0,1-3.791-.461,7.847,7.847,0,0,1-3.146-1.586,7.937,7.937,0,0,1-2.153-2.987,11.619,11.619,0,0,1-.809-4.628q0-5.051,2.539-7.762t7.764-2.711a14.531,14.531,0,0,1,3.845.5,7.669,7.669,0,0,1,5.3,4.739A12.638,12.638,0,0,1,260.856,91.667ZM250.9,84.039a4.525,4.525,0,0,0-4,1.792,8.971,8.971,0,0,0-1.247,5.154,21.373,21.373,0,0,0,.33,4.139,7.07,7.07,0,0,0,.972,2.567A3.462,3.462,0,0,0,248.5,99a5.408,5.408,0,0,0,2.072.369,4.353,4.353,0,0,0,4.069-1.958,10.846,10.846,0,0,0,1.174-5.542,17.563,17.563,0,0,0-.348-3.842,6.42,6.42,0,0,0-1.008-2.4A3.557,3.557,0,0,0,252.9,84.39,5.449,5.449,0,0,0,250.9,84.039Z" transform="translate(-240.617 -73.026)" fill="#152e37"/>
      <path id="Контур_135" data-name="Контур 135" d="M291.77,89.818q-.074,1.656,3.2,1.656v2.1H283.564v-2.1q3.165,0,3.165-1.656V78.632q0-1.692-3.165-1.692v-2.1h8.206Zm.442-21.159a3.1,3.1,0,0,1-.9,2.226,3.1,3.1,0,0,1-3.459.681,3.278,3.278,0,0,1-1.674-1.674,3.1,3.1,0,0,1,.681-3.459,3.106,3.106,0,0,1,2.226-.9,3.142,3.142,0,0,1,3.128,3.128Z" transform="translate(-260.602 -65.531)" fill="#152e37"/>
      <path id="Контур_136" data-name="Контур 136" d="M315.417,85.386a5.854,5.854,0,0,1,2.791-2.779,10.341,10.341,0,0,1,4.516-.9,10.477,10.477,0,0,1,3.414.552,7.412,7.412,0,0,1,2.845,1.766,8.533,8.533,0,0,1,1.946,3.109,13,13,0,0,1,.716,4.581,12.007,12.007,0,0,1-.808,4.673,8.539,8.539,0,0,1-2.149,3.11,8.4,8.4,0,0,1-3.067,1.748,11.658,11.658,0,0,1-3.563.552,10.723,10.723,0,0,1-3.288-.479,5.467,5.467,0,0,1-2.332-1.362v6.08q0,1.647,4.011,1.648v2.1H308.2v-2.1q3.2,0,3.2-1.653V86.156q0-1.69-3.2-1.689v-2.1h6.918Zm5.777-.994a4.941,4.941,0,0,0-2.429.552,4.346,4.346,0,0,0-1.6,1.528,6.765,6.765,0,0,0-.865,2.355,18.013,18.013,0,0,0,0,6.072,6.761,6.761,0,0,0,.865,2.355,4.346,4.346,0,0,0,1.6,1.527,4.941,4.941,0,0,0,2.429.552,5.158,5.158,0,0,0,2.466-.552,4.707,4.707,0,0,0,1.692-1.527,6.6,6.6,0,0,0,.957-2.355,15.793,15.793,0,0,0,0-6.072,6.6,6.6,0,0,0-.957-2.355,4.707,4.707,0,0,0-1.692-1.528A5.158,5.158,0,0,0,321.194,84.393Z" transform="translate(-272.069 -72.978)" fill="#152e37"/>
      <path id="Контур_137" data-name="Контур 137" d="M376,97.453q0,1.63,1.1,1.629a.826.826,0,0,0,.773-.5,2.427,2.427,0,0,0,.258-1.129V95.269h1.73v1.666a6.4,6.4,0,0,1-.295,2.073,3.334,3.334,0,0,1-.846,1.369,3.2,3.2,0,0,1-1.306.741,5.814,5.814,0,0,1-1.638.222,4.123,4.123,0,0,1-1.693-.314,3.563,3.563,0,0,1-1.178-.831,3.664,3.664,0,0,1-.736-1.182,8.319,8.319,0,0,1-.4-1.4,6.223,6.223,0,0,1-1.123,1.552,7.732,7.732,0,0,1-1.711,1.311,9.191,9.191,0,0,1-2.244.9,10.429,10.429,0,0,1-2.687.333q-3.46,0-5.06-1.422a4.906,4.906,0,0,1-1.6-3.861,4.816,4.816,0,0,1,.57-2.457,4.922,4.922,0,0,1,1.583-1.644,8.606,8.606,0,0,1,2.355-1.053q1.343-.387,2.87-.7t3.165-.61q1.637-.3,3.256-.739V88.076a6.128,6.128,0,0,0-.239-1.736,3.644,3.644,0,0,0-2.116-2.383,4.787,4.787,0,0,0-1.914-.351,11.454,11.454,0,0,0-3.146.369,5.766,5.766,0,0,0-2.042,1,2.571,2.571,0,0,1,1.435.554,1.666,1.666,0,0,1,.589,1.367,2.243,2.243,0,0,1-.662,1.681,2.682,2.682,0,0,1-1.95.647,2.529,2.529,0,0,1-1.932-.684,2.663,2.663,0,0,1-.644-1.9,3.412,3.412,0,0,1,.589-1.848,5.667,5.667,0,0,1,1.693-1.654,9.511,9.511,0,0,1,2.741-1.183,14.1,14.1,0,0,1,3.735-.451,16.8,16.8,0,0,1,3.275.315,8.294,8.294,0,0,1,2.8,1.074,5.5,5.5,0,0,1,1.932,2.072A6.849,6.849,0,0,1,376,88.274ZM371.181,90.7q-2.355.592-4.085,1.09a16.985,16.985,0,0,0-2.87,1.071,4.687,4.687,0,0,0-1.693,1.312,3,3,0,0,0-.552,1.847,2.5,2.5,0,0,0,.92,2.069,4.415,4.415,0,0,0,2.8.739,6.165,6.165,0,0,0,3.33-.905,6.276,6.276,0,0,0,2.153-2.087Z" transform="translate(-294.936 -72.962)" fill="#152e37"/>
      <path id="Контур_138" data-name="Контур 138" d="M427.179,85.043a9.364,9.364,0,0,0-1.913.275,3.6,3.6,0,0,0-1.693.975l-5.078,5,10.847,12.044a5.224,5.224,0,0,0,1.471,1.159,4.339,4.339,0,0,0,2.024.423v2.1H421.062v-2.1h2.208c.539,0,.81-.159.81-.479a1.183,1.183,0,0,0-.3-.736l-8.822-10.056L410.8,98a1.336,1.336,0,0,0-.442.957q0,.626,1.288.626h1.914v2.1h-9.347v-2.1a5.7,5.7,0,0,0,2.005-.35,4.9,4.9,0,0,0,1.748-1.159l5.851-5.814-5.115-5.777a4.2,4.2,0,0,0-1.49-1.085,5.6,5.6,0,0,0-2.153-.349v-2.1h11.224v2.1h-1.509q-.81,0-.809.515a1.639,1.639,0,0,0,.552.92l2.907,3.422,3.091-3.275a2.984,2.984,0,0,0,.368-.442.913.913,0,0,0,.147-.515q0-.625-1.1-.625h-1.325v-2.1h8.574Z" transform="translate(-316.748 -73.554)" fill="#152e37"/>
    </g>
  </g>
</svg>
